<svg width="116" height="116" viewBox="0 0 116 116" fill="none" xmlns="http://www.w3.org/2000/svg">
<path fill-rule="evenodd" clip-rule="evenodd" d="M57.9019 57.7627C57.9019 49.7875 64.3674 43.322 72.3426 43.322C80.3178 43.322 86.7832 49.7875 86.7832 57.7627C86.7832 65.7379 80.3178 72.2033 72.3426 72.2033C64.3674 72.2033 57.9019 65.7379 57.9019 57.7627Z" fill="#1ABCFE"/>
<path fill-rule="evenodd" clip-rule="evenodd" d="M29.0206 86.6438C29.0206 78.6686 35.4859 72.2031 43.4613 72.2031H57.9019V86.6438C57.9019 94.619 51.4365 101.084 43.4613 101.084C35.4859 101.084 29.0206 94.619 29.0206 86.6438Z" fill="#0ACF83"/>
<path fill-rule="evenodd" clip-rule="evenodd" d="M57.9019 14.4407V43.322H72.3426C80.3178 43.322 86.7832 36.8565 86.7832 28.8813C86.7832 20.906 80.3178 14.4407 72.3426 14.4407H57.9019Z" fill="#FF7262"/>
<path fill-rule="evenodd" clip-rule="evenodd" d="M29.0206 28.8813C29.0206 36.8565 35.4859 43.322 43.4613 43.322H57.9019V14.4407H43.4613C35.4859 14.4407 29.0206 20.906 29.0206 28.8813Z" fill="#F24E1E"/>
<path fill-rule="evenodd" clip-rule="evenodd" d="M29.0206 57.7627C29.0206 65.7379 35.4859 72.2033 43.4613 72.2033H57.9019V43.322H43.4613C35.4859 43.322 29.0206 49.7875 29.0206 57.7627Z" fill="#A259FF"/>
</svg>
